<svg width="44" height="44" viewBox="0 0 44 44" fill="none" xmlns="http://www.w3.org/2000/svg">
<g clip-path="url(#clip0_27_365)">
<path d="M30.0147 17.5419C30.0147 17.5419 30.1007 17.6483 30.1438 17.7122V17.7548H30.1653C31.2411 20.1602 31.0044 23.183 29.1756 25.2265C26.6797 27.632 24.8078 28.3558 21.8171 26.7592L5.57262 42.831C4.30318 44.0869 2.23765 44.0869 0.968214 42.831C-0.301223 41.5751 -0.301223 39.5315 0.968214 38.2756L17.2557 22.1612C16.4381 20.5434 16.5888 18.6701 16.933 17.5206C17.6215 15.3067 20.7844 13.4335 23.5814 13.4761C23.8181 13.4761 24.0333 13.6251 24.1408 13.8166C24.2484 14.0082 24.2269 14.285 24.0978 14.4553C23.4954 15.3067 22.9359 16.2008 22.3765 17.0736C21.9032 17.8399 21.7526 18.7978 22.2259 19.4364C22.2259 19.4364 22.2259 19.4364 22.2259 19.4577C22.9144 20.5221 24.2269 21.2671 25.4963 21.3097C26.3785 21.3097 27.2176 20.7137 27.5834 19.9261C27.5834 19.9048 27.6049 19.8622 27.6264 19.8409C28.0998 19.1384 28.5301 18.3295 29.111 17.5632C29.2186 17.4142 29.3907 17.329 29.5628 17.3077C29.735 17.2864 29.9286 17.3716 30.0577 17.478L30.0147 17.5419ZM4.43227 39.4251C3.95892 38.9567 3.22738 38.9567 2.75403 39.4251C2.28068 39.8934 2.28068 40.6384 2.75403 41.0855C3.22738 41.5325 3.98044 41.5325 4.43227 41.0855C4.88411 40.6384 4.90562 39.8934 4.43227 39.4251Z" fill="white"/>
<path d="M18.224 0.810417C17.9658 0.810417 17.6861 0.852991 17.4279 0.916853C15.7281 1.36388 14.7169 3.10943 15.1687 4.79111C15.3408 5.40844 15.6636 5.91933 16.1154 6.32378C16.1584 6.60052 16.223 6.89854 16.2875 7.17527V7.23913C15.4269 7.64358 14.6093 8.1119 13.8347 8.64408C13.8347 8.64408 13.8132 8.62279 13.7917 8.60151C13.5765 8.38863 13.3614 8.19705 13.1247 8.02675C12.9956 7.452 12.7159 6.89854 12.2641 6.45151C11.0161 5.21685 8.99364 5.21685 7.74572 6.45151C6.4978 7.68616 6.4978 9.68715 7.74572 10.9218C8.19755 11.3688 8.75697 11.6669 9.3379 11.7733C9.51002 12.0074 9.70367 12.2203 9.91883 12.4332L9.96186 12.4758C9.42396 13.2421 8.92909 14.051 8.54181 14.9025C8.52029 14.9025 8.49878 14.9025 8.47726 14.9025C8.17604 14.8173 7.89633 14.7748 7.61662 14.7322C7.20782 14.2852 6.69144 13.9659 6.06748 13.7956C4.36773 13.3485 2.60342 14.349 2.15159 16.0307C1.69976 17.7124 2.711 19.4579 4.41076 19.905C5.03472 20.0753 5.65868 20.054 6.21809 19.8624C6.47628 19.9688 6.75599 20.054 7.05721 20.1391C7.07873 20.1391 7.10024 20.1391 7.12176 20.1391C7.0357 21.0545 7.0357 22.0124 7.12176 22.949H7.05721C6.75599 23.0342 6.47628 23.1406 6.21809 23.247C5.65868 23.0767 5.03472 23.0342 4.41076 23.2045C2.711 23.6515 1.69976 25.397 2.15159 27.0787C2.60342 28.7604 4.36773 29.7609 6.06748 29.3139C6.69144 29.1436 7.20782 28.8243 7.61662 28.3772C7.89633 28.3347 8.19755 28.2708 8.47726 28.2069C8.49878 28.2069 8.52029 28.2069 8.54181 28.2069C8.64939 28.4411 8.75697 28.654 8.86455 28.8668C10.3061 27.4619 11.7477 26.0357 13.1892 24.6094C13.1462 24.4604 13.1032 24.3327 13.0601 24.1837C11.5971 18.7342 14.846 13.157 20.354 11.6881C25.8621 10.2406 31.4993 13.455 32.9839 18.9045C34.4469 24.354 31.198 29.9312 25.69 31.4C23.4308 31.9961 21.1286 31.8045 19.1276 30.9956C17.7291 32.3792 16.3306 33.7629 14.932 35.1465C15.3839 35.402 15.8357 35.6574 16.309 35.8703C16.309 35.8916 16.309 35.9129 16.309 35.9342C16.223 36.2322 16.1799 36.5089 16.1369 36.7857C15.6851 37.1901 15.3623 37.701 15.1902 38.3183C14.7384 40 15.7496 41.7456 17.4494 42.1926C19.1491 42.6396 20.9134 41.6391 21.3653 39.9574C21.5374 39.3401 21.5159 38.7228 21.3222 38.1693C21.4298 37.9139 21.5159 37.6371 21.602 37.3391C21.602 37.3391 21.602 37.2966 21.602 37.2753C22.5271 37.3604 23.4954 37.3604 24.4421 37.2753C24.4421 37.2966 24.4421 37.3178 24.4421 37.3391C24.5281 37.6371 24.6142 37.9139 24.7218 38.1693C24.5496 38.7228 24.5066 39.3401 24.6787 39.9574C25.1306 41.6391 26.8949 42.6396 28.5946 42.1926C30.2944 41.7456 31.3056 40 30.8538 38.3183C30.6817 37.701 30.3589 37.1901 29.9071 36.7857C29.8641 36.5089 29.7995 36.2109 29.735 35.9342V35.8703C30.5956 35.4659 31.4132 34.9975 32.1878 34.4654C32.1878 34.4654 32.2093 34.4866 32.2308 34.5079C32.446 34.7208 32.6611 34.9124 32.8978 35.0827C33.0269 35.6574 33.3066 36.2109 33.7584 36.6579C35.0064 37.8926 37.0289 37.8926 38.2768 36.6579C39.5247 35.4233 39.5247 33.4223 38.2768 32.1876C37.8249 31.7406 37.2655 31.4639 36.6846 31.3362C36.5125 31.102 36.3188 30.8891 36.1037 30.6763L36.0606 30.6337C36.5985 29.8673 37.0934 29.0584 37.4807 28.2069C37.5022 28.2069 37.5237 28.2069 37.5452 28.2282C37.8465 28.3134 38.1262 28.356 38.4059 28.3985C38.8147 28.8456 39.331 29.1649 39.955 29.3352C41.6548 29.7822 43.4191 28.7817 43.8709 27.1C44.3227 25.4183 43.3115 23.6728 41.6117 23.2258C40.9878 23.0555 40.3638 23.0768 39.8044 23.2683C39.5462 23.1619 39.2665 23.0768 38.9653 22.9916C38.9438 22.9916 38.9223 22.9916 38.9007 22.9916C38.9868 22.0763 38.9868 21.1183 38.9007 20.1817H38.9653C39.2665 20.0966 39.5462 19.9901 39.8044 19.8837C40.3638 20.0753 40.9878 20.0966 41.6117 19.9263C43.3115 19.4792 44.3227 17.7337 43.8709 16.052C43.4191 14.3703 41.6548 13.3698 39.955 13.8169C39.331 13.9871 38.8147 14.3065 38.4059 14.7535C38.1262 14.7961 37.8249 14.8599 37.5452 14.9238C37.5237 14.9238 37.5022 14.9238 37.4807 14.9238C37.0719 14.051 36.5985 13.2421 36.0606 12.4758C36.0606 12.4758 36.0822 12.4545 36.1037 12.4332C36.3188 12.2203 36.5125 12.0074 36.6846 11.7733C37.2655 11.6456 37.8249 11.3688 38.2768 10.9218C39.5247 9.68715 39.5247 7.68616 38.2768 6.45151C37.0289 5.21685 35.0064 5.21685 33.7584 6.45151C33.3066 6.89854 33.0269 7.452 32.8978 8.02675C32.6611 8.19705 32.446 8.38863 32.2308 8.60151L32.1878 8.64408C31.4132 8.1119 30.5741 7.64358 29.7134 7.23913C29.7134 7.21784 29.7134 7.19656 29.7134 7.17527C29.7995 6.87725 29.8425 6.60052 29.8856 6.32378C30.3374 5.91933 30.6601 5.40844 30.8323 4.79111C31.2841 3.10943 30.2729 1.36388 28.5731 0.916853C26.8733 0.469823 25.109 1.47032 24.6572 3.152C24.4851 3.76933 24.5281 4.38665 24.7002 4.94012C24.5927 5.19557 24.4851 5.4723 24.4205 5.77032C24.4205 5.77032 24.4205 5.81289 24.4205 5.83418C23.4954 5.74903 22.5271 5.74903 21.5804 5.83418V5.77032C21.4944 5.4723 21.3868 5.19557 21.2792 4.94012C21.4513 4.38665 21.4944 3.76933 21.3222 3.152C20.9565 1.72576 19.644 0.810417 18.224 0.810417Z" fill="white"/>
</g>
<defs>
<clipPath id="clip0_27_365">
<rect width="44" height="43" fill="white" transform="translate(0 0.810303)"/>
</clipPath>
</defs>
</svg>
