<svg width="36" height="44" viewBox="0 0 36 44" fill="none" xmlns="http://www.w3.org/2000/svg">
<g clip-path="url(#clip0_27_378)">
<path d="M18 13.3518C18.7935 13.3518 19.4583 13.9826 19.4583 14.7816V15.6858C20.402 15.833 21.3456 16.1274 22.182 16.5899C23.6832 17.389 24.9485 18.6085 25.6562 20.1435C25.8922 20.6481 26.1066 21.2789 26.1281 21.9098C26.1281 23.1293 25.0987 24.1386 23.8548 24.1386C22.9326 24.1386 22.2249 23.7601 21.9032 23.1083C21.4957 22.2672 21.4743 21.2789 20.9167 20.501C20.4234 19.8281 19.6942 19.3234 18.8793 19.1342C17.5067 18.8188 16.0484 19.4286 15.212 20.522C14.3113 21.6574 14.2898 23.2134 15.0619 24.454C16.1771 26.2203 17.7426 26.2623 19.5441 26.8931C20.4449 27.1875 21.3885 27.4188 22.2892 27.7552C23.5974 28.2599 24.8413 29.164 25.6777 30.3836C26.3425 31.3719 26.6857 32.6545 26.6857 34.1895C26.6857 36.208 26.0423 37.8692 24.7126 39.1728C23.3186 40.5396 21.4099 41.2965 19.4369 41.5068V42.3479C19.4369 43.1469 18.7935 43.7777 17.9786 43.7777C17.1636 43.7777 16.5202 43.1469 16.5202 42.3479V41.4648C15.4265 41.3176 14.3756 41.0442 13.4105 40.6447C11.9093 40.0139 10.5153 38.5841 9.76471 37.0281C9.50735 36.5234 9.29289 35.8926 9.29289 35.2618C9.29289 34.0423 10.3009 33.033 11.5662 33.033C12.4884 33.033 13.1961 33.4115 13.5178 34.0633C14.1826 35.4721 14.5901 37.1963 16.7347 37.8902C18 38.2897 19.8658 38.3948 21.3885 36.7968C21.8174 36.4183 22.2463 35.5772 22.2463 34.61C22.2463 33.6428 21.9675 32.9909 21.4528 32.5073C20.9381 32.0237 20.1446 31.519 19.0509 31.2036C16.1556 30.3836 12.81 29.4164 11.03 26.83C10.3438 25.8418 10.0221 24.5591 10.0221 23.0032C10.0221 20.9846 10.6869 19.3234 11.9951 18.0198C13.2819 16.7582 14.7831 15.9381 16.5631 15.6858V14.8027C16.5631 14.0036 17.2065 13.3728 18.0214 13.3728L18 13.3518Z" fill="white"/>
<path d="M17.9361 0.7146C17.786 0.7146 17.6144 0.819734 17.5501 0.945895L12.4673 9.67206C12.4673 9.67206 12.403 9.84027 12.403 9.94541C12.4245 10.1767 12.6389 10.3659 12.8748 10.3659H15.9416V13.1415C16.4134 12.5738 17.0783 12.1953 17.8289 12.1743C18.5795 12.0901 19.2872 12.3845 19.8019 12.8892V10.387H23.126C23.4263 10.387 23.5979 10.1346 23.5979 9.8613C23.5979 9.79822 23.5764 9.71411 23.5335 9.65103L18.3865 0.945895C18.3007 0.798707 18.1291 0.7146 17.9361 0.7146ZM0.993693 7.21191C0.865016 7.21191 0.757786 7.25396 0.672002 7.33807C0.543325 7.46423 0.457541 7.63245 0.521879 7.80066L3.1383 17.5151C3.1383 17.5151 3.20264 17.6623 3.24553 17.7043C3.43855 17.8936 3.73879 17.9567 3.95325 17.7464L6.31232 15.4334L9.82948 18.8818C10.4729 17.7674 11.3521 16.8212 12.403 16.0642L9.03597 12.763L11.202 10.6393C11.3736 10.4711 11.395 10.1977 11.2449 10.0085C11.1806 9.92438 11.0948 9.88232 11.009 9.8613L1.12237 7.23294C1.12237 7.23294 1.03658 7.23294 1.01514 7.21191H0.993693ZM34.9857 7.21191C34.9857 7.21191 34.8999 7.21191 34.8785 7.23294L24.9919 9.88233C24.9919 9.88233 24.8203 9.94541 24.7559 10.0295C24.6058 10.2188 24.6273 10.4921 24.7988 10.6603L26.9649 12.784L23.6408 16.0642C23.8981 16.2324 24.134 16.4217 24.3914 16.6109C25.1205 17.2207 25.8068 17.9567 26.3215 18.7767L29.71 15.4545L32.0691 17.7674C32.2835 17.9777 32.5838 17.9146 32.7768 17.7254C32.8197 17.6833 32.8626 17.5992 32.884 17.5361L35.5004 7.82169C35.5433 7.65347 35.5004 7.46423 35.3503 7.3591C35.2645 7.27499 35.1358 7.23294 35.0286 7.23294L34.9857 7.21191Z" fill="white"/>
</g>
<defs>
<clipPath id="clip0_27_378">
<rect width="35" height="43" fill="white" transform="translate(0.5 0.7146)"/>
</clipPath>
</defs>
</svg>
