<svg width="37" height="43" viewBox="0 0 37 43" fill="none" xmlns="http://www.w3.org/2000/svg">
<g clip-path="url(#clip0_27_381)">
<path d="M18.8534 12.5625C18.0037 12.5625 17.1539 13.0143 16.698 13.7948C15.9726 14.986 16.3871 16.5469 17.5892 17.2451C18.7912 17.9434 20.3457 17.5532 21.0503 16.362C21.7757 15.1708 21.3612 13.6099 20.1591 12.9116C19.7446 12.6652 19.2887 12.5625 18.8327 12.5625H18.8534ZM16.698 18.0872C14.7912 18.0872 13.2576 18.9703 13.2576 20.0588V29.0339C13.2576 29.5268 13.6514 29.9376 14.1488 29.9376H14.5011C14.9985 29.9376 15.413 29.5473 15.413 29.0339V21.9278C15.5374 21.9483 15.641 21.9278 15.7653 21.9278V40.8637C15.7653 41.5209 16.2835 42.0344 16.926 42.0344H17.5063C18.1695 42.0344 18.6876 41.5209 18.6876 40.8637V29.609H19.0814V40.8637C19.0814 41.5209 19.5995 42.0344 20.2628 42.0344H20.8431C21.5063 42.0344 22.0244 41.5209 22.0244 40.8637V21.9278C22.1488 21.9278 22.2524 21.9483 22.3767 21.9278V29.0339C22.3767 29.5268 22.7912 29.9376 23.2887 29.9376H23.6203C24.1177 29.9376 24.5115 29.5473 24.5115 29.0339V20.0588C24.5115 18.9703 22.9778 18.0872 21.071 18.0872H16.7187H16.698Z" fill="white"/>
<path d="M31.2265 0.0344238C30.3768 0.0344238 29.527 0.486258 29.0711 1.2667C28.3457 2.4579 28.7602 4.01878 29.9623 4.71706C31.1643 5.41535 32.7187 5.02513 33.4234 3.83393C34.1488 2.64274 33.7343 1.08186 32.5322 0.383568C32.1384 0.137113 31.6825 0.0344238 31.2265 0.0344238ZM29.0711 5.55912C27.1643 5.55912 25.6306 6.44225 25.6306 7.53076V16.5058C25.6306 16.9987 26.0244 17.4095 26.5218 17.4095H26.8742C27.3716 17.4095 27.7861 17.0193 27.7861 16.5058V9.3997C27.9104 9.42024 28.0141 9.3997 28.1384 9.3997V28.3356C28.1384 28.9929 28.6566 29.5063 29.299 29.5063H29.8794C30.5426 29.5063 31.0607 28.9929 31.0607 28.3356V17.0809H31.4545V28.3356C31.4545 28.9929 31.9726 29.5063 32.6358 29.5063H33.2161C33.8794 29.5063 34.3975 28.9929 34.3975 28.3356V9.3997C34.5218 9.3997 34.6255 9.42024 34.7498 9.3997V16.5058C34.7498 16.9987 35.1643 17.4095 35.6617 17.4095H35.9933C36.4908 17.4095 36.8845 17.0193 36.8845 16.5058V7.53076C36.8845 6.44225 35.3509 5.55912 33.4441 5.55912H29.0918H29.0711Z" fill="white"/>
<path d="M6.48038 0.0344238C5.63064 0.0344238 4.78089 0.486258 4.32494 1.2667C3.59955 2.4579 4.01406 4.01878 5.21613 4.71706C6.4182 5.41535 7.9726 5.02513 8.67727 3.83393C9.40266 2.64274 8.98815 1.08186 7.78608 0.383568C7.39229 0.137113 6.93634 0.0344238 6.48038 0.0344238ZM4.32494 5.55912C2.4182 5.55912 0.884521 6.44225 0.884521 7.53076V16.5058C0.884521 16.9987 1.2783 17.4095 1.77571 17.4095H2.12804C2.62545 17.4095 3.03996 17.0193 3.03996 16.5058V9.3997C3.16431 9.42024 3.26794 9.3997 3.39229 9.3997V28.3356C3.39229 28.9929 3.91043 29.5063 4.55292 29.5063H5.13323C5.79644 29.5063 6.31457 28.9929 6.31457 28.3356V17.0809H6.70836V28.3356C6.70836 28.9929 7.22649 29.5063 7.8897 29.5063H8.47001C9.13323 29.5063 9.65136 28.9929 9.65136 28.3356V9.3997C9.77571 9.3997 9.87934 9.42024 10.0037 9.3997V16.5058C10.0037 16.9987 10.4182 17.4095 10.9156 17.4095H11.2472C11.7446 17.4095 12.1384 17.0193 12.1384 16.5058V7.53076C12.1384 6.44225 10.6047 5.55912 8.69799 5.55912H4.32494Z" fill="white"/>
</g>
<defs>
<clipPath id="clip0_27_381">
<rect width="36" height="42" fill="white" transform="translate(0.884521 0.0344238)"/>
</clipPath>
</defs>
</svg>
