<svg width="44" height="43" viewBox="0 0 44 43" fill="none" xmlns="http://www.w3.org/2000/svg">
<g clip-path="url(#clip0_27_339)">
<path d="M29.1969 14.4626C28.719 14.4626 28.1789 14.5257 27.6803 14.5678C27.0362 14.6729 26.6 15.1775 26.6 15.7663V17.0909C26.6 17.3642 26.3922 17.6376 26.1221 17.7007C25.3119 17.974 24.5016 18.3104 23.7953 18.6889C23.5875 18.8571 23.2551 18.794 23.0474 18.5837L22.1333 17.6586C21.697 17.2801 21.053 17.2171 20.5751 17.5955C19.7649 18.2473 19.0585 18.9622 18.4145 19.7822C18.0405 20.2658 18.0405 20.9387 18.4768 21.3592L19.3909 22.2843C19.5987 22.4946 19.661 22.7679 19.4948 23.0413C19.0585 23.7982 18.7469 24.5762 18.5184 25.3962C18.456 25.6695 18.186 25.8798 17.9159 25.8798H16.607C15.963 25.9428 15.4644 26.3634 15.4228 26.9731C15.3605 27.4567 15.319 27.9613 15.319 28.508C15.319 28.9916 15.3813 29.5383 15.4228 30.0429C15.5267 30.6947 16.0253 31.1363 16.607 31.1363H17.9159C18.186 31.1363 18.456 31.3465 18.5184 31.6199C18.7884 32.4399 19.1208 33.2599 19.4948 33.9748C19.661 34.185 19.5987 34.5215 19.3909 34.7317L18.4768 35.6569C18.1029 36.0984 18.0405 36.7502 18.4145 37.2338C19.0585 38.0538 19.7649 38.7687 20.5751 39.4205C21.053 39.799 21.7178 39.799 22.1333 39.3574L23.0474 38.4323C23.2551 38.222 23.5252 38.159 23.7953 38.3272C24.5432 38.7687 25.3119 39.1051 26.1221 39.3154C26.3922 39.3785 26.6 39.6518 26.6 39.9251V41.2498C26.6623 41.9016 27.0986 42.4062 27.6803 42.4483C28.1581 42.5113 28.6567 42.5534 29.1969 42.5534C29.6747 42.5534 30.2149 42.4903 30.7135 42.4483C31.3575 42.3431 31.7938 41.8385 31.7938 41.2498V39.9251C31.7938 39.6518 32.0015 39.3785 32.2716 39.3154C33.0818 39.0421 33.8921 38.7056 34.5984 38.3272C34.8062 38.159 35.1386 38.222 35.3464 38.4323L36.2605 39.3574C36.6967 39.7359 37.3408 39.799 37.8186 39.4205C38.6288 38.7687 39.3352 38.0538 39.9792 37.2338C40.3532 36.7502 40.3532 36.0774 39.9169 35.6569L39.0028 34.7317C38.7951 34.5215 38.7327 34.2481 38.8989 33.9748C39.3352 33.2178 39.6676 32.4399 39.8754 31.6199C39.9377 31.3465 40.2078 31.1363 40.4779 31.1363H41.7659C42.41 31.0732 42.9086 30.6527 42.9501 30.0429C43.0124 29.5593 43.054 29.0547 43.054 28.508C43.054 28.0244 42.9917 27.4777 42.9501 26.9731C42.8462 26.3213 42.3476 25.8798 41.7659 25.8798H40.4779C40.2078 25.8798 39.9377 25.6695 39.8754 25.3962C39.6053 24.5762 39.2729 23.7561 38.8989 23.0413C38.7327 22.831 38.7951 22.4946 39.0028 22.2843L39.9169 21.3592C40.2909 20.9176 40.3532 20.2658 39.9792 19.7822C39.3352 18.9622 38.6288 18.2473 37.8186 17.5955C37.3408 17.2171 36.676 17.2171 36.2605 17.6586L35.3464 18.5837C35.1386 18.794 34.8685 18.8571 34.5984 18.6889C33.8505 18.2473 33.0818 17.9109 32.2716 17.7007C32.0015 17.6376 31.7938 17.3642 31.7938 17.0909V15.7663C31.7315 15.1145 31.3159 14.6098 30.7135 14.5678C30.2356 14.5047 29.737 14.4626 29.1969 14.4626ZM29.1969 18.5627C29.7162 18.5627 30.111 18.9832 30.111 19.4879V20.0766C30.7135 20.1817 31.3159 20.371 31.8353 20.6653C32.791 21.191 33.6012 21.99 34.0375 22.9992C34.1829 23.3356 34.3284 23.7561 34.3284 24.1556C34.3284 24.9546 33.6843 25.6064 32.8949 25.6064C32.3132 25.6064 31.8561 25.3541 31.6691 24.9126C31.399 24.3449 31.399 23.7141 31.0459 23.1884C30.7342 22.7469 30.2772 22.4105 29.7578 22.2843C28.8852 22.0741 27.9503 22.4736 27.431 23.1884C26.8493 23.9454 26.8493 24.9546 27.3479 25.7746C28.0542 26.9311 29.0514 26.9731 30.1941 27.3726C30.7758 27.5829 31.3575 27.709 31.9392 27.9403C32.7702 28.2767 33.5597 28.8655 34.0998 29.6645C34.5361 30.3163 34.7439 31.1573 34.7439 32.1665C34.7439 33.4912 34.3284 34.5845 33.4974 35.4466C32.604 36.3507 31.399 36.8343 30.1318 36.9815V37.5282C30.1318 38.0538 29.7162 38.4533 29.2176 38.4533C28.719 38.4533 28.3035 38.0328 28.3035 37.5282V36.9605C27.6179 36.8764 26.9324 36.6871 26.3091 36.4138C25.3534 35.9933 24.4809 35.0681 23.9823 34.0379C23.8161 33.7014 23.6914 33.2809 23.6914 32.8814C23.6914 32.0824 24.3354 31.4096 25.1249 31.4096C25.7066 31.4096 26.1637 31.6619 26.3507 32.1035C26.7869 33.0286 27.0362 34.164 28.4074 34.6056C29.2176 34.8579 30.4018 34.921 31.3575 33.8907C31.6276 33.6384 31.8977 33.0917 31.8977 32.4609C31.8977 31.8301 31.7315 31.3886 31.3783 31.0732C31.0459 30.7578 30.5473 30.4214 29.8409 30.2111C28.0127 29.6645 25.8728 29.0337 24.751 27.3516C24.3147 26.6998 24.1069 25.8587 24.1069 24.8495C24.1069 23.5249 24.5224 22.4315 25.3534 21.5694C26.1637 20.7494 27.1401 20.2027 28.262 20.0345V19.4458C28.262 18.9202 28.6775 18.5207 29.1761 18.5207L29.1969 18.5627Z" fill="white"/>
<path d="M1.71114 0.774658C1.10865 0.774658 0.610046 1.27928 0.610046 1.88904V10.1733C0.610046 10.783 1.10865 11.2877 1.71114 11.2877H30.6511C31.2536 11.2877 31.7522 10.783 31.7522 10.1733V1.88904C31.7522 1.27928 31.2536 0.774658 30.6511 0.774658H1.71114ZM1.71114 13.3903C1.10865 13.3903 0.610046 13.8739 0.610046 14.5046V22.7889C0.610046 23.3986 1.10865 23.9033 1.71114 23.9033H14.758C16.4616 18.4575 21.4477 14.1893 27.0362 13.3903H1.71114ZM1.71114 26.0059C1.10865 26.0059 0.610046 26.5105 0.610046 27.1202V35.4045C0.610046 36.0143 1.10865 36.5189 1.71114 36.5189H16.3162C14.4672 33.407 13.6777 29.6223 14.2802 26.0059H1.71114Z" fill="white"/>
</g>
<defs>
<clipPath id="clip0_27_339">
<rect width="42.4855" height="41.8418" fill="white" transform="translate(0.610046 0.774658)"/>
</clipPath>
</defs>
</svg>
