<svg width="42" height="43" viewBox="0 0 42 43" fill="none" xmlns="http://www.w3.org/2000/svg">
<g clip-path="url(#clip0_27_354)">
<path d="M41.1923 15.8219C38.6827 7.02379 30.5769 0.562256 21 0.562256C15.5769 0.562256 10.6154 2.61033 6.89423 6.01418C6.77885 6.12956 6.66346 6.24495 6.51923 6.36033C6.28846 6.5911 6.02885 6.82187 5.79808 7.08149C4.41346 8.55264 3.23077 10.1969 2.27885 12.0142C2.10577 12.3026 1.96154 12.6199 1.84615 12.9373C0.663461 15.5623 0 18.5046 0 21.5623C0 24.6199 0.663461 27.5623 1.84615 30.1873C1.99038 30.5046 2.13462 30.793 2.27885 31.1103C3.20192 32.9276 4.38461 34.5719 5.79808 36.043C6.02885 36.2738 6.25961 36.5334 6.51923 36.7642C6.63461 36.8796 6.75 36.9949 6.89423 37.1103C10.6154 40.4853 15.5769 42.5911 21 42.5911C30.6058 42.5911 38.6827 36.1296 41.1923 27.3315C41.7115 25.5142 42 23.5815 42 21.5911C42 19.6007 41.7404 17.668 41.1923 15.8219ZM34.0385 34.6007C33.2019 35.4373 32.3077 36.1873 31.3269 36.8507C30.2885 37.5719 29.1346 38.1776 27.9519 38.6392C28.5577 37.8892 29.0769 37.0526 29.5962 36.0719C30 35.3507 30.3173 34.5719 30.6635 33.7642H34.8173C34.8173 33.7642 34.7308 33.8796 34.6731 33.9373C34.4712 34.168 34.2404 34.3988 34.0385 34.6007ZM2.59615 22.8603H9.23077C9.31731 25.8315 9.75 28.6873 10.5 31.2834H5.30769C3.75 28.8026 2.79808 25.918 2.59615 22.8603ZM31.2981 6.27379C32.2788 6.93726 33.2019 7.68726 34.0096 8.52379C34.2115 8.72572 34.4135 8.92764 34.6154 9.18725C34.6731 9.24495 34.7019 9.30264 34.7596 9.33149H30.6058C30.2885 8.52379 29.9423 7.74495 29.5385 7.02379C29.0192 6.07187 28.4712 5.23533 27.8942 4.48533C29.1058 4.97572 30.2308 5.58149 31.2692 6.27379H31.2981ZM32.7692 20.293C32.6827 17.3219 32.25 14.4661 31.5 11.8699H36.6923C38.2212 14.3507 39.2019 17.2065 39.4038 20.293H32.7692ZM22.2692 39.8219V33.793H27.8365C26.4231 36.9661 24.4615 39.1584 22.2692 39.8219ZM22.2692 31.2546V22.8315H30.2308C30.1154 25.8892 29.625 28.7449 28.8462 31.2546H22.2981H22.2692ZM22.2692 20.293V11.8699H28.8173C29.625 14.3507 30.1154 17.2353 30.2019 20.293H22.2692ZM27.8365 9.33149H22.2692V3.30264C24.4615 3.93726 26.4231 6.12956 27.8365 9.33149ZM19.7019 3.30264V9.33149H14.1346C15.5769 6.15841 17.5385 3.93726 19.7019 3.30264ZM19.7019 11.8699V20.293H11.7404C11.8558 17.2353 12.3462 14.3796 13.125 11.8699H19.6731H19.7019ZM9.23077 20.293H2.59615C2.79808 17.2353 3.77885 14.3507 5.30769 11.8699H10.5C9.75 14.4661 9.31731 17.3219 9.23077 20.293ZM11.7692 22.8603H19.7308V31.2834H13.2115C12.4038 28.7738 11.8846 25.918 11.7981 22.8603H11.7692ZM19.7019 33.8219V39.8507C17.5096 39.2161 15.5769 36.9949 14.1346 33.8219H19.7019ZM36.6923 31.2834H31.5C32.2212 28.6873 32.6827 25.8315 32.7692 22.8603H39.4038C39.2019 25.918 38.2212 28.8026 36.6923 31.2834ZM10.6731 6.27379C11.7115 5.55264 12.8654 4.94687 14.0481 4.48533C13.4423 5.23533 12.9231 6.07187 12.4038 7.02379C12 7.74495 11.6827 8.52379 11.3365 9.33149H7.18269C7.18269 9.33149 7.26923 9.2161 7.32692 9.18725L7.93269 8.52379C8.79808 7.68726 9.69231 6.93726 10.6731 6.27379ZM7.93269 34.6007C7.73077 34.3988 7.52885 34.1969 7.32692 33.9661C7.29808 33.9084 7.24038 33.8507 7.18269 33.793H11.3365C11.6538 34.6007 12 35.3796 12.4038 36.1007C12.9231 37.0526 13.4712 37.8892 14.0481 38.668C12.8654 38.1776 11.7115 37.5719 10.6731 36.8796C9.69231 36.2161 8.76923 35.4373 7.93269 34.6296V34.6007Z" fill="white"/>
</g>
<defs>
<clipPath id="clip0_27_354">
<rect width="42" height="42" fill="white" transform="translate(0 0.562256)"/>
</clipPath>
</defs>
</svg>
