<svg width="42" height="43" viewBox="0 0 42 43" fill="none" xmlns="http://www.w3.org/2000/svg">
<g clip-path="url(#clip0_27_368)">
<path d="M35.2965 16.8914H29.4C29.0458 16.8914 28.7586 17.1764 28.7586 17.528V42.1735C28.7586 42.5251 29.0458 42.8102 29.4 42.8102H35.2965C35.6508 42.8102 35.9379 42.5251 35.9379 42.1735V17.528C35.9379 17.1764 35.6508 16.8914 35.2965 16.8914Z" fill="white"/>
<path d="M16.1172 31.001H10.2207C9.86647 31.001 9.57932 31.286 9.57932 31.6377V42.1736C9.57932 42.5252 9.86647 42.8103 10.2207 42.8103H16.1172C16.4715 42.8103 16.7586 42.5252 16.7586 42.1736V31.6377C16.7586 31.286 16.4715 31.001 16.1172 31.001Z" fill="white"/>
<path d="M6.53793 33.8352H0.641379C0.287155 33.8352 0 34.1203 0 34.4719V42.1736C0 42.5252 0.287155 42.8103 0.641379 42.8103H6.53793C6.89216 42.8103 7.17931 42.5252 7.17931 42.1736V34.4719C7.17931 34.1203 6.89216 33.8352 6.53793 33.8352Z" fill="white"/>
<path d="M35.3586 7.13599C35.3586 7.13599 35.2345 7.13599 35.1931 7.17706L29.7724 9.06655C29.5862 9.12816 29.4414 9.29247 29.4 9.49784C29.3586 9.70322 29.4414 9.9086 29.5862 10.0318L31.2828 11.49C23.3173 20.8142 15.6828 25.8665 10.0138 28.6186C4.20002 31.3912 0.517256 31.7609 0.517256 31.7609C0.372429 31.7609 0.227601 31.8431 0.124153 31.9663C0.0207046 32.0895 -0.0206747 32.2333 1.4944e-05 32.3771C1.4944e-05 32.5208 0.0827736 32.6646 0.206912 32.7673C0.331049 32.87 0.475877 32.911 0.620705 32.8905C0.620705 32.8905 4.55174 32.4797 10.469 29.625C16.2828 26.8318 24.0414 21.6563 32.1104 12.2294L33.8897 13.7697C34.0345 13.893 34.2621 13.934 34.4483 13.8724C34.6345 13.8108 34.7793 13.626 34.8207 13.4411L35.9173 7.81374C35.9586 7.64943 35.9173 7.46459 35.7931 7.34137C35.6897 7.21814 35.5035 7.13599 35.3379 7.13599H35.3586Z" fill="white"/>
<path d="M25.7173 25.1887H19.8207C19.4665 25.1887 19.1793 25.4738 19.1793 25.8254V42.1941C19.1793 42.5457 19.4665 42.8308 19.8207 42.8308H25.7173C26.0715 42.8308 26.3586 42.5457 26.3586 42.1941V25.8254C26.3586 25.4738 26.0715 25.1887 25.7173 25.1887Z" fill="white"/>
<path d="M41.9172 0.871916C41.9172 0.871916 41.8138 0.810303 41.7931 0.810303C41.7724 0.810303 41.7517 0.810303 41.7517 0.810303H41.7104C41.6897 0.810303 41.669 0.810303 41.6276 0.810303C41.5655 0.810303 41.4828 0.830841 41.3793 0.851379C41.1724 0.892454 40.8828 0.93353 40.5724 0.995144C39.9931 1.11837 39.3517 1.26214 38.8966 1.4059L41.6276 3.91153C41.731 3.43915 41.8345 2.78194 41.8966 2.20688C41.9379 1.89881 41.9586 1.61128 41.9793 1.4059C41.9793 1.30321 41.9793 1.22106 41.9793 1.15945C41.9793 1.11837 41.9793 1.09783 41.9793 1.0773C41.9793 1.0773 41.9793 1.05676 41.9793 1.03622C41.9793 1.03622 41.9793 1.01568 41.9793 0.995144C41.9793 0.974606 41.9793 0.93353 41.8966 0.871916H41.9172ZM38.5448 1.54967C38.5448 1.54967 38.4621 1.54967 38.4414 1.54967C35.7103 2.63818 33.8276 4.89734 32.4207 7.11544C32.1931 7.15651 31.7172 7.21813 31.2828 7.2592C30.7862 7.30028 30.3517 7.34135 30.3517 7.34135C30.2897 7.34135 30.2276 7.38243 30.1655 7.44404L27.9724 10.114C27.9724 10.114 27.9103 10.381 27.9931 10.4631L28.5103 10.9355C28.5103 10.9355 28.7379 11.0176 28.8207 10.956L30.6414 9.76483L30.8483 9.84698C30.7862 9.99074 30.7035 10.114 30.6414 10.2577C30.6 10.3604 30.6207 10.4837 30.7035 10.5658L33.0621 12.7223C33.0621 12.7223 33.269 12.8044 33.3724 12.7428C33.4966 12.6607 33.6414 12.5785 33.7655 12.4964L33.8483 12.7017L32.7931 14.6118C32.7931 14.6118 32.7517 14.8377 32.8345 14.9198L33.3517 15.3922C33.3517 15.3922 33.6207 15.4744 33.7035 15.3922L36.2069 13.0098C36.2069 13.0098 36.2897 12.8866 36.2897 12.825C36.2897 12.825 36.2897 12.3937 36.2897 11.9008C36.2897 11.4489 36.3103 10.9766 36.331 10.7506C38.4621 9.16923 40.5724 7.13597 41.4414 4.34282C41.4414 4.30175 41.4414 4.26067 41.4414 4.24013L38.4828 1.52913L38.5448 1.54967ZM38.4207 4.63035C38.8552 5.02057 38.8759 5.69832 38.4828 6.12962C38.0897 6.56091 37.4069 6.58145 36.9724 6.19123C36.5379 5.80101 36.5172 5.12326 36.9103 4.69197C37.3035 4.26067 37.9862 4.24013 38.4207 4.63035Z" fill="white"/>
</g>
<defs>
<clipPath id="clip0_27_368">
<rect width="42" height="42" fill="white" transform="translate(0 0.810303)"/>
</clipPath>
</defs>
</svg>
