<svg width="44" height="45" viewBox="0 0 44 45" fill="none" xmlns="http://www.w3.org/2000/svg">
<g clip-path="url(#clip0_27_348)">
<path d="M30.9829 18.5632C29.5198 18.5632 28.0352 18.8703 26.5721 19.4187C19.9452 21.985 16.6103 29.5742 19.1491 36.3299C21.6665 43.0857 29.111 46.4855 35.7379 43.9192C42.3648 41.3529 45.6998 33.7636 43.1824 27.0079C41.2029 21.7437 36.2328 18.4974 31.0044 18.5632H30.9829ZM31.0259 22.5114C31.5423 22.5114 31.9511 22.9281 31.9726 23.4326C31.9726 23.4326 31.9726 23.4326 31.9726 23.4546V31.5044C32.0156 31.7676 31.9511 32.0308 31.779 32.2282C31.779 32.2282 31.7359 32.2721 31.7144 32.294C31.7144 32.294 31.6714 32.3379 31.6499 32.3598C31.4347 32.5353 31.1765 32.6231 30.8968 32.5792H22.8929C22.3765 32.5792 21.9677 32.1624 21.9677 31.658C21.9677 31.1315 22.3765 30.7148 22.8714 30.7148H30.1222V23.4546C30.1222 22.9281 30.5095 22.5114 31.0259 22.4895V22.5114Z" fill="white"/>
<path d="M1.14034 2.68282C0.516381 2.68282 0 3.18731 0 3.84534V8.73666C0 9.37275 0.494865 9.89917 1.14034 9.89917H35.0494C35.6734 9.89917 36.1897 9.39469 36.1897 8.73666V3.8234C36.1897 3.18731 35.6949 2.66089 35.0494 2.66089H30.8968V5.88522C30.8968 6.52131 30.402 7.04773 29.7565 7.04773H26.6582C26.0342 7.04773 25.5178 6.54324 25.5178 5.88522V2.68282H10.6073V5.90715C10.6073 6.54324 10.1125 7.06966 9.46699 7.06966H6.3687C5.74474 7.06966 5.22836 6.56518 5.22836 5.90715V2.68282H1.14034Z" fill="white"/>
<path d="M29.4337 0.774658H27.024C26.715 0.774658 26.4645 1.02999 26.4645 1.34495V5.53438C26.4645 5.84934 26.715 6.10467 27.024 6.10467H29.4337C29.7427 6.10467 29.9932 5.84934 29.9932 5.53438V1.34495C29.9932 1.02999 29.7427 0.774658 29.4337 0.774658Z" fill="white"/>
<path d="M9.14425 0.774658H6.73447C6.42552 0.774658 6.17506 1.02999 6.17506 1.34495V5.53438C6.17506 5.84934 6.42552 6.10467 6.73447 6.10467H9.14425C9.45321 6.10467 9.70367 5.84934 9.70367 5.53438V1.34495C9.70367 1.02999 9.45321 0.774658 9.14425 0.774658Z" fill="white"/>
<path d="M1.14034 12.2463C0.494865 12.2463 0 12.7508 0 13.3869V36.4398C0 37.0758 0.494865 37.6023 1.14034 37.6023H18.2024C17.9873 37.1197 17.7936 36.5933 17.643 36.0888H2.51736C1.93643 36.0888 1.4846 35.6501 1.4846 35.0798V14.7688C1.4846 14.2204 1.95795 13.7598 2.51736 13.7598H33.6509C34.2318 13.7598 34.6836 14.1985 34.6836 14.7688V17.6202C35.1785 17.7518 35.6733 17.9054 36.1682 18.1028V13.4089C36.1682 12.7728 35.6734 12.2463 35.0279 12.2463H1.14034ZM5.50807 16.4577C5.18533 16.4577 4.94866 16.7209 4.94866 17.028V20.4936C4.94866 20.8226 5.20685 21.0639 5.50807 21.0639H8.90758C9.23032 21.0639 9.46699 20.8007 9.46699 20.4936V17.028C9.46699 16.699 9.2088 16.4577 8.90758 16.4577H5.50807ZM10.9516 16.4577C10.6289 16.4577 10.3922 16.7209 10.3922 17.028V20.4936C10.3922 20.8226 10.6504 21.0639 10.9516 21.0639H14.3511C14.6738 21.0639 14.9105 20.8007 14.9105 20.4936V17.028C14.9105 16.699 14.6523 16.4577 14.3511 16.4577H10.9516ZM16.3951 16.4577C16.0724 16.4577 15.8357 16.7209 15.8357 17.028V20.4936C15.8357 20.8226 16.0939 21.0639 16.3951 21.0639H19.7946C20.1174 21.0639 20.354 20.8007 20.354 20.4936V17.028C20.354 16.699 20.0958 16.4577 19.7946 16.4577H16.3951ZM21.8386 16.4577C21.5159 16.4577 21.2792 16.7209 21.2792 17.028V20.4936C21.2792 20.7129 21.3868 20.8884 21.5589 20.9981C22.8068 19.8356 24.2484 18.8924 25.7976 18.2344V17.028C25.7976 16.699 25.5394 16.4577 25.2381 16.4577H21.8386ZM5.50807 22.6212C5.18533 22.6212 4.94866 22.8844 4.94866 23.1915V26.6571C4.94866 26.9861 5.20685 27.2274 5.50807 27.2274H8.90758C9.23032 27.2274 9.46699 26.9642 9.46699 26.6571V23.1915C9.46699 22.8625 9.2088 22.6212 8.90758 22.6212H5.50807ZM10.9516 22.6212C10.6289 22.6212 10.3922 22.8844 10.3922 23.1915V26.6571C10.3922 26.9861 10.6504 27.2274 10.9516 27.2274H14.3511C14.6738 27.2274 14.9105 26.9642 14.9105 26.6571V23.1915C14.9105 22.8625 14.6523 22.6212 14.3511 22.6212H10.9516ZM16.3951 22.6212C16.0724 22.6212 15.8357 22.8844 15.8357 23.1915V26.6571C15.8357 26.9861 16.0939 27.2274 16.3951 27.2274H17.5785C18.0949 25.5604 18.934 24.025 20.0098 22.6651C19.9452 22.6431 19.8592 22.6212 19.7946 22.6212H16.3951ZM5.50807 28.7847C5.18533 28.7847 4.94866 29.0479 4.94866 29.355V32.8206C4.94866 33.1496 5.20685 33.3909 5.50807 33.3909H8.90758C9.23032 33.3909 9.46699 33.1277 9.46699 32.8206V29.355C9.46699 29.026 9.2088 28.7847 8.90758 28.7847H5.50807ZM10.9516 28.7847C10.6289 28.7847 10.3922 29.0479 10.3922 29.355V32.8206C10.3922 33.1496 10.6504 33.3909 10.9516 33.3909H14.3511C14.6738 33.3909 14.9105 33.1277 14.9105 32.8206V29.355C14.9105 29.026 14.6523 28.7847 14.3511 28.7847H10.9516Z" fill="white"/>
</g>
<defs>
<clipPath id="clip0_27_348">
<rect width="44" height="44" fill="white" transform="translate(0 0.774658)"/>
</clipPath>
</defs>
</svg>
