<svg width="27" height="45" viewBox="0 0 27 45" fill="none" xmlns="http://www.w3.org/2000/svg">
<g clip-path="url(#clip0_27_356)">
<path d="M22.9442 0.176514H3.65797C1.79777 0.176514 0.258301 1.66111 0.258301 3.51148V40.82C0.258301 42.6704 1.79777 44.155 3.65797 44.155H22.9655C24.8044 44.155 26.2797 42.6704 26.2797 40.82V3.51148C26.2797 1.66111 24.8257 0.176514 22.9655 0.176514H22.9442ZM10.5642 1.89779H16.0593C16.4228 1.89779 16.7007 2.22052 16.7007 2.58629C16.7007 2.95206 16.4014 3.25329 16.0593 3.2748H10.5856C10.158 3.2748 9.88001 2.95206 9.88001 2.58629C9.88001 2.22052 10.1794 1.89779 10.5642 1.89779ZM13.2797 42.821C12.1465 42.821 11.2271 41.8958 11.2271 40.7555C11.2271 39.6151 12.1465 38.69 13.2797 38.69C14.4129 38.69 15.3323 39.6151 15.3323 40.7555C15.3323 41.8958 14.4129 42.821 13.2797 42.821ZM24.9326 37.356H1.6481V4.97456H24.954V37.356H24.9326Z" fill="white"/>
<path d="M22.1958 29.1155H13.1086C12.719 29.1155 12.403 29.4334 12.403 29.8255C12.403 30.2176 12.719 30.5355 13.1086 30.5355H22.1958C22.5855 30.5355 22.9014 30.2176 22.9014 29.8255C22.9014 29.4334 22.5855 29.1155 22.1958 29.1155Z" fill="white"/>
<path d="M22.1958 20.2939H13.1086C12.719 20.2939 12.403 20.6118 12.403 21.004C12.403 21.3961 12.719 21.714 13.1086 21.714H22.1958C22.5855 21.714 22.9014 21.3961 22.9014 21.004C22.9014 20.6118 22.5855 20.2939 22.1958 20.2939Z" fill="white"/>
<path d="M22.1958 11.4724H13.1086C12.719 11.4724 12.403 11.7903 12.403 12.1824C12.403 12.5746 12.719 12.8925 13.1086 12.8925H22.1958C22.5855 12.8925 22.9014 12.5746 22.9014 12.1824C22.9014 11.7903 22.5855 11.4724 22.1958 11.4724Z" fill="white"/>
<path d="M5.00501 8.82593C4.23527 8.82593 3.6152 9.4714 3.6152 10.2245V14.0973C3.6152 14.8719 4.25665 15.4959 5.00501 15.4959H8.85369C9.62343 15.4959 10.2435 14.8504 10.2435 14.0973V10.2245C10.2435 9.44989 9.60205 8.82593 8.85369 8.82593H5.00501ZM5.00501 10.2245H8.85369V14.0973H5.00501V10.2245Z" fill="white"/>
<path d="M5.00501 17.6475C4.23527 17.6475 3.6152 18.2929 3.6152 19.046V22.9189C3.6152 23.6934 4.25665 24.3174 5.00501 24.3174H8.85369C9.62343 24.3174 10.2435 23.6719 10.2435 22.9189V19.046C10.2435 18.2714 9.60205 17.6475 8.85369 17.6475H5.00501ZM5.00501 19.046H8.85369V22.9189H5.00501V19.046Z" fill="white"/>
<path d="M5.00501 26.4905C4.23527 26.4905 3.6152 27.136 3.6152 27.889V31.7619C3.6152 32.5364 4.25665 33.1604 5.00501 33.1604H8.85369C9.62343 33.1604 10.2435 32.5149 10.2435 31.7619V27.889C10.2435 27.1144 9.60205 26.4905 8.85369 26.4905H5.00501ZM5.00501 27.889H8.85369V31.7619H5.00501V27.889Z" fill="white"/>
</g>
<defs>
<clipPath id="clip0_27_356">
<rect width="26" height="44" fill="white" transform="translate(0.258301 0.176514)"/>
</clipPath>
</defs>
</svg>
