<svg width="148" height="28" viewBox="0 0 148 28" fill="none" xmlns="http://www.w3.org/2000/svg">
<g clip-path="url(#clip0_457_5922)">
<path d="M44.2722 6.3749L40.5467 15.2844L36.9086 6.3749H31.375L31.5785 6.85425L37.8236 21.6238H42.8779L49.3265 6.37354H44.2722V6.3749Z" fill="#FE9500"/>
<path d="M59.4459 17.4421C58.8505 17.6893 58.2264 17.8122 57.5722 17.8122C56.4688 17.8122 55.5852 17.464 54.9256 16.7661C54.2646 16.0683 53.9341 15.1464 53.9341 13.9993C53.9341 12.8521 54.2687 11.8948 54.9365 11.2106C55.6043 10.5278 56.5043 10.1864 57.6378 10.1864C58.9584 10.1864 60.1 10.7463 61.0587 11.8634L64.3486 8.96686C63.5647 8.00818 62.5801 7.27892 61.3974 6.77772C60.2134 6.27653 58.8737 6.02661 57.3783 6.02661C55.7218 6.02661 54.2373 6.36393 52.9235 7.03993C51.6084 7.71456 50.5842 8.65959 49.8522 9.87229C49.1188 11.085 48.7515 12.4616 48.7515 14.0007C48.7515 15.5398 49.1188 16.9163 49.8522 18.129C50.5855 19.3417 51.5989 20.2854 52.8908 20.9614C53.7143 21.3916 54.6047 21.6852 55.5633 21.8409C56.1096 21.931 56.6791 21.9747 57.269 21.9747C57.859 21.9747 58.4599 21.9296 59.0649 21.8409C59.6303 21.7576 60.2011 21.6347 60.776 21.4735C61.9669 21.1403 63.013 20.661 63.913 20.0355V13.5869H59.4473V17.4421H59.4459Z" fill="#FE9500"/>
<path d="M84.4824 6.37476H80.2557L75.4199 14.5004L70.453 6.37476H66.2263V21.625H70.9105V14.9156L74.2222 20.2525H76.4878L79.7996 14.6766L79.8433 21.6264H84.5274L84.4837 6.37612L84.4824 6.37476Z" fill="#FE9500"/>
<path d="M95.808 19.3596C94.7619 19.3596 93.8251 19.1302 92.9975 18.6727C92.1699 18.2152 91.5226 17.5802 91.0583 16.7663C90.5926 15.9523 90.3604 15.0305 90.3604 13.9994C90.3604 12.9684 90.5926 12.0466 91.0583 11.2326C91.5226 10.4201 92.1685 9.78367 92.9975 9.32618C93.8251 8.86868 94.7619 8.64062 95.808 8.64062C97.4195 8.64062 98.7783 9.23604 99.8818 10.4269L101.712 8.70617C101 7.87858 100.129 7.24629 99.0979 6.81064C98.0668 6.375 96.9265 6.15649 95.6769 6.15649C94.1365 6.15649 92.7462 6.49381 91.5048 7.16981C90.2635 7.84444 89.2857 8.77855 88.5755 9.9694C87.864 11.1602 87.5076 12.5041 87.5076 13.9994C87.5076 15.4948 87.8599 16.84 88.5646 18.0295C89.2693 19.2203 90.2416 20.1531 91.483 20.8291C92.6574 21.4682 93.9644 21.8042 95.4038 21.8397C95.4871 21.8424 95.5704 21.8424 95.6551 21.8424C95.7397 21.8424 95.8299 21.8424 95.9173 21.8397C97.0644 21.811 98.1201 21.5938 99.0856 21.1896C100.125 20.754 100.999 20.1217 101.71 19.2941L99.8804 17.5515C98.7769 18.7574 97.4181 19.3596 95.8066 19.3596H95.808Z" fill="white"/>
<path d="M117.452 9.9694C116.741 8.77855 115.76 7.84581 114.51 7.16981C113.261 6.49381 111.86 6.15649 110.306 6.15649C108.751 6.15649 107.35 6.49381 106.101 7.16981C104.851 7.84444 103.872 8.78265 103.16 9.98032C102.449 11.1794 102.093 12.5177 102.093 13.9994C102.093 15.4812 102.448 16.8209 103.16 18.0186C103.872 19.2162 104.853 20.1531 106.101 20.8291C107.282 21.4682 108.598 21.8042 110.052 21.8397C110.135 21.8424 110.22 21.8424 110.306 21.8424C110.392 21.8424 110.475 21.8424 110.56 21.8397C112.013 21.8055 113.329 21.4682 114.51 20.8291C115.759 20.1544 116.739 19.2203 117.452 18.0295C118.164 16.8386 118.519 15.4948 118.519 13.9994C118.519 12.5041 118.164 11.1602 117.452 9.9694ZM114.968 16.7553C114.502 17.5761 113.864 18.2152 113.051 18.6727C112.237 19.1302 111.322 19.3596 110.306 19.3596C109.29 19.3596 108.373 19.1302 107.561 18.6727C106.747 18.2152 106.108 17.5761 105.643 16.7553C105.178 15.9359 104.945 15.0169 104.945 13.9994C104.945 12.982 105.178 12.0643 105.643 11.2436C106.108 10.4228 106.747 9.78367 107.561 9.32618C108.373 8.86868 109.288 8.64062 110.306 8.64062C111.323 8.64062 112.237 8.87005 113.051 9.32618C113.864 9.78367 114.502 10.4228 114.968 11.2436C115.432 12.0643 115.666 12.9834 115.666 13.9994C115.666 15.0155 115.432 15.9359 114.968 16.7553Z" fill="white"/>
<path d="M129.659 16.6144C130.705 16.2088 131.507 15.5916 132.067 14.7626C132.625 13.935 132.905 12.9476 132.905 11.7991C132.905 10.6506 132.643 9.71515 132.121 8.90258C131.598 8.08865 130.847 7.46455 129.867 7.0289C128.886 6.59326 127.735 6.37476 126.413 6.37476H120.139V21.625H122.972V17.1812H126.413C126.675 17.1812 126.87 17.1743 127.002 17.1593L130.117 21.625H133.166L129.659 16.6144ZM129.092 14.0552C128.453 14.5851 127.516 14.85 126.282 14.85H122.97V8.77284H126.282C127.516 8.77284 128.453 9.03368 129.092 9.55673C129.732 10.0798 130.051 10.8282 130.051 11.8005C130.051 12.7728 129.732 13.5253 129.092 14.0552Z" fill="white"/>
<path d="M146.773 8.90258C146.25 8.08865 145.499 7.46455 144.518 7.0289C143.538 6.59326 142.386 6.37476 141.066 6.37476H134.792V21.625H137.624V17.2249H141.066C142.388 17.2249 143.539 17.0064 144.518 16.5707C145.499 16.1351 146.25 15.5069 146.773 14.6861C147.296 13.8654 147.557 12.9026 147.557 11.7991C147.557 10.6957 147.296 9.71515 146.773 8.90258ZM143.744 14.0443C143.105 14.5673 142.168 14.8282 140.933 14.8282H137.622V8.77148H140.933C142.168 8.77148 143.105 9.03232 143.744 9.55536C144.383 10.0784 144.703 10.8268 144.703 11.7991C144.703 12.7715 144.383 13.5199 143.744 14.0429V14.0443Z" fill="white"/>
<path d="M26.3735 6.92932C26.3626 6.91157 26.3517 6.89245 26.3407 6.8747C26.2397 6.70809 26.1359 6.54284 26.028 6.38033C26.0075 6.35029 25.9884 6.32024 25.9679 6.2902C25.8627 6.13315 25.7549 5.97883 25.6442 5.82724C25.6224 5.7972 25.5992 5.76715 25.576 5.73574C25.4681 5.58962 25.3575 5.44622 25.2441 5.3042C25.225 5.28098 25.2059 5.2564 25.1868 5.23318C25.0775 5.09798 24.9642 4.96688 24.8494 4.83578C24.8194 4.80164 24.7907 4.76749 24.7593 4.73335C24.6405 4.59952 24.5189 4.46978 24.3947 4.34141C24.3605 4.30727 24.3278 4.27176 24.2936 4.23762C24.1652 4.10652 24.0341 3.97815 23.9017 3.85387C23.8771 3.83066 23.8525 3.8088 23.8279 3.78559C23.6845 3.65175 23.5398 3.52065 23.3909 3.39365C23.3909 3.39365 23.3868 3.38955 23.3841 3.38818L19.6736 7.09867L14.1823 12.59L8.69239 7.09867L4.9819 3.38818C4.9819 3.38818 4.97371 3.39501 4.97098 3.39911C4.82349 3.52475 4.6801 3.65449 4.53807 3.78559C4.51349 3.8088 4.48754 3.83202 4.46296 3.85524C4.32912 3.98088 4.19939 4.10925 4.07101 4.23899C4.03687 4.27313 4.0041 4.30727 3.96996 4.34278C3.84568 4.47115 3.72414 4.60225 3.60396 4.73608C3.57392 4.76886 3.54524 4.803 3.51656 4.83578C3.40321 4.96551 3.29123 5.09662 3.18197 5.23045C3.16285 5.25367 3.14373 5.27688 3.12598 5.3001C3.01127 5.44349 2.89928 5.58825 2.79003 5.73574C2.76681 5.76579 2.7436 5.7972 2.72175 5.82724C2.61113 5.97883 2.50324 6.13451 2.39809 6.2902C2.3776 6.32024 2.35848 6.35029 2.33936 6.37897C2.23148 6.54148 2.12769 6.70672 2.02663 6.8747C2.0157 6.89245 2.00615 6.91021 1.99522 6.92659C0.727893 9.05018 0 11.5302 0 14.1809C0 20.9082 4.68283 26.5401 10.9662 27.9973V22.5483C7.60669 21.2523 5.2168 17.9911 5.2168 14.1809C5.2168 13.2223 5.36838 12.3004 5.64834 11.4333H5.64971L10.7586 16.5449L14.1823 19.9686L17.606 16.5449L22.7149 11.436H22.7163C22.9962 12.3004 23.1478 13.2236 23.1478 14.1809C23.1478 17.9966 20.7511 21.2619 17.3834 22.5538V28.0014C23.675 26.5497 28.3646 20.9136 28.3646 14.1809C28.3646 11.5316 27.6367 9.05155 26.3721 6.92932H26.3735Z" fill="white"/>
<path d="M20.6796 1.57323L14.1819 8.07101L7.68408 1.57323C9.63014 0.568112 11.8398 0 14.1819 0C16.524 0 18.7336 0.568112 20.6796 1.57323Z" fill="#FE9500"/>
</g>
<defs>
<clipPath id="clip0_457_5922">
<rect width="147.556" height="28" fill="white"/>
</clipPath>
</defs>
</svg>
