<svg width="29" height="41" viewBox="0 0 29 41" fill="none" xmlns="http://www.w3.org/2000/svg">
<g clip-path="url(#clip0_27_375)">
<path d="M3.3058 2.71731C1.48464 2.71731 0 4.18431 0 5.98382V37.1036C0 38.9031 1.48464 40.3701 3.3058 40.3701H25.714C27.5352 40.3701 29.0198 38.9031 29.0198 37.1036V5.96426C29.0198 4.16475 27.5352 2.69775 25.714 2.69775H21.5372V5.53394C21.5372 6.02294 21.1413 6.41413 20.7058 6.41413H8.31399C7.8587 6.41413 7.54198 6.02294 7.54198 5.53394V2.69775H3.3058V2.71731ZM4.01843 8.44836H7.60136C8.31399 8.44836 8.90785 9.03516 8.90785 9.73932V13.2797C8.90785 13.9838 8.31399 14.5706 7.60136 14.5706H4.01843C3.3058 14.5706 2.71195 13.9838 2.71195 13.2797V9.73932C2.71195 9.03516 3.3058 8.44836 4.01843 8.44836ZM4.01843 9.73932V13.2797H7.60136V9.73932H4.01843ZM12.6689 10.8738H24.7836C25.1597 10.8738 25.4369 11.1476 25.4369 11.4997C25.4369 11.8518 25.1399 12.1256 24.7836 12.1256H12.6689C12.3126 12.1256 12.0157 11.8518 12.0157 11.4997C12.0157 11.1476 12.3126 10.8738 12.6689 10.8738ZM4.17679 16.2528H7.75973C8.47235 16.2528 9.06621 16.8396 9.06621 17.5437V21.0841C9.06621 21.7882 8.47235 22.375 7.75973 22.375H4.17679C3.46416 22.375 2.87031 21.7882 2.87031 21.0841V17.5437C2.87031 16.8396 3.46416 16.2528 4.17679 16.2528ZM4.17679 17.5437V21.0841H7.75973V17.5437H4.17679ZM12.6689 18.7956H24.7836C25.1597 18.7956 25.4369 19.089 25.4369 19.441C25.4369 19.7931 25.1399 20.0669 24.7836 20.0669H12.6689C12.3126 20.0669 12.0157 19.7931 12.0157 19.441C12.0157 19.089 12.3126 18.7956 12.6689 18.7956ZM4.17679 24.0572H7.75973C8.47235 24.0572 9.06621 24.644 9.06621 25.3481V28.8885C9.06621 29.5926 8.47235 30.1794 7.75973 30.1794H4.17679C3.46416 30.1794 2.87031 29.5926 2.87031 28.8885V25.3481C2.87031 24.644 3.46416 24.0572 4.17679 24.0572ZM4.17679 25.3481V28.8885H7.75973V25.3481H4.17679ZM12.6689 26.7369H24.7836C25.1597 26.7369 25.4369 27.0303 25.4369 27.3823C25.4369 27.7344 25.1399 28.0083 24.7836 28.0083H12.6689C12.3126 28.0083 12.0157 27.7344 12.0157 27.3823C12.0157 27.0303 12.3126 26.7369 12.6689 26.7369ZM4.25597 31.8811H7.83891C8.55154 31.8811 9.14539 32.4679 9.14539 33.1721V36.7124C9.14539 37.4166 8.55154 38.0034 7.83891 38.0034H4.25597C3.54334 38.0034 2.94949 37.4166 2.94949 36.7124V33.1721C2.94949 32.4679 3.54334 31.8811 4.25597 31.8811ZM4.25597 33.1721V36.7124H7.83891V33.1721H4.25597ZM12.6689 34.6782H24.7836C25.1597 34.6782 25.4369 34.952 25.4369 35.3041C25.4369 35.6562 25.1399 35.9496 24.7836 35.9496H12.6689C12.3126 35.9496 12.0157 35.6562 12.0157 35.3041C12.0157 34.952 12.3126 34.6782 12.6689 34.6782Z" fill="white"/>
<path d="M9.52151 0.350586H19.4983C19.8546 0.350586 20.1515 0.643984 20.1515 1.01562V4.6342C20.1515 5.00584 19.8546 5.29924 19.4983 5.29924H9.52151C9.16519 5.29924 8.88806 5.00584 8.88806 4.6342V1.01562C8.88806 0.643984 9.18499 0.350586 9.52151 0.350586Z" fill="white"/>
</g>
<defs>
<clipPath id="clip0_27_375">
<rect width="29" height="40" fill="white" transform="translate(0 0.350586)"/>
</clipPath>
</defs>
</svg>
